<?xml version="1.0" encoding="UTF-8" standalone="no"?>
<svg
   xmlns:dc="http://purl.org/dc/elements/1.1/"
   xmlns:cc="http://creativecommons.org/ns#"
   xmlns:rdf="http://www.w3.org/1999/02/22-rdf-syntax-ns#"
   xmlns:svg="http://www.w3.org/2000/svg"
   xmlns="http://www.w3.org/2000/svg"
   id="svg8"
   version="1.1"
   viewBox="0 0 210 297"
   height="297mm"
   width="210mm">
  <defs
     id="defs2" />
  <metadata
     id="metadata5">
    <rdf:RDF>
      <cc:Work
         rdf:about="">
        <dc:format>image/svg+xml</dc:format>
        <dc:type
           rdf:resource="http://purl.org/dc/dcmitype/StillImage" />
        <dc:title></dc:title>
      </cc:Work>
    </rdf:RDF>
  </metadata>
  <g
     id="layer1">
    <g
       id="text817"
       style="font-style:italic;font-variant:normal;font-weight:bold;font-stretch:normal;font-size:80.06689453px;line-height:1.25;font-family:sans-serif;-inkscape-font-specification:'sans-serif, Bold Italic';font-variant-ligatures:normal;font-variant-caps:normal;font-variant-numeric:normal;font-feature-settings:normal;text-align:start;letter-spacing:0px;word-spacing:0px;writing-mode:lr-tb;text-anchor:start;fill:#000000;fill-opacity:1;stroke:none;stroke-width:4.28929758"
       transform="scale(0.75508812,1.3243487)"
       aria-label="153">
      <path
         id="path819"
         style="font-style:italic;font-variant:normal;font-weight:bold;font-stretch:normal;font-size:80.06689453px;font-family:sans-serif;-inkscape-font-specification:'sans-serif, Bold Italic';font-variant-ligatures:normal;font-variant-caps:normal;font-variant-numeric:normal;font-feature-settings:normal;text-align:start;writing-mode:lr-tb;text-anchor:start;stroke-width:4.28929758"
         d="M 7.4385973,50.754824 H 20.730953 L 28.041748,13.027992 13.850204,15.842843 15.844057,5.5999104 29.957411,2.7850594 h 14.30883 L 35.000687,50.754824 H 48.214852 L 46.220999,61.154138 H 5.3665533 Z" />
      <path
         id="path821"
         style="font-style:italic;font-variant:normal;font-weight:bold;font-stretch:normal;font-size:80.06689453px;font-family:sans-serif;-inkscape-font-specification:'sans-serif, Bold Italic';font-variant-ligatures:normal;font-variant-caps:normal;font-variant-numeric:normal;font-feature-settings:normal;text-align:start;writing-mode:lr-tb;text-anchor:start;stroke-width:4.28929758"
         d="M 71.750141,2.7850594 H 109.16422 L 107.01398,13.84899 H 81.602117 l -1.75928,9.030983 q 1.72019,-0.469142 3.55766,-0.703713 1.87657,-0.273666 3.75314,-0.273666 8.95279,0 13.996073,4.104992 5.04327,4.065897 5.04327,11.298502 0,11.493978 -7.779933,18.257441 -7.77994,6.724368 -21.11139,6.724368 -4.886898,0 -9.500128,-0.977379 -4.613229,-0.938284 -9.148268,-2.893042 l 2.306615,-11.845834 q 4.339563,2.814851 8.40546,4.144087 4.104991,1.329236 8.327271,1.329236 6.17703,0 9.89107,-3.205804 3.71405,-3.244898 3.71405,-8.48365 0,-3.753136 -2.81486,-5.942465 -2.81485,-2.228424 -7.66265,-2.228424 -3.28399,0 -7.11532,0.860093 -3.792229,0.820999 -8.327268,2.580281 z" />
      <path
         id="path823"
         style="font-style:italic;font-variant:normal;font-weight:bold;font-stretch:normal;font-size:80.06689453px;font-family:sans-serif;-inkscape-font-specification:'sans-serif, Bold Italic';font-variant-ligatures:normal;font-variant-caps:normal;font-variant-numeric:normal;font-feature-settings:normal;text-align:start;writing-mode:lr-tb;text-anchor:start;stroke-width:4.28929758"
         d="m 151.07423,29.682531 q 4.41775,1.016474 6.88075,4.104992 2.46299,3.088518 2.46299,7.584462 0,9.6956 -7.70174,15.325304 -7.66265,5.590608 -21.11139,5.590608 -5.08237,0 -9.6956,-0.742808 -4.57414,-0.703713 -8.64003,-2.150234 l 2.22842,-11.611263 q 3.47947,2.032948 7.58446,3.166708 4.105,1.094665 8.20999,1.094665 6.60708,0 10.43841,-2.462996 3.87042,-2.50209 3.87042,-6.685273 0,-3.479469 -2.93214,-5.199656 -2.93214,-1.759283 -8.83551,-1.759283 h -5.98156 l 1.91567,-9.6956 h 6.33341 q 6.13794,0 9.6956,-2.228425 3.59676,-2.228424 3.59676,-6.020655 0,-2.971232 -2.50209,-4.535039 -2.463,-1.563806 -7.19351,-1.563806 -3.32309,0 -7.23261,0.860093 -3.90951,0.860094 -8.13179,2.502091 l 2.15023,-11.0248356 q 4.61323,-1.251045 9.07008,-1.876568 4.49594,-0.625523 8.8746,-0.625523 9.89108,0 14.85616,3.283994 5.00419,3.283994 5.00419,9.7737906 0,5.825179 -3.47947,9.734696 -3.44038,3.870421 -9.7347,5.160561 z" />
    </g>
  </g>
</svg>
