<?xml version="1.0" encoding="UTF-8" standalone="no"?>
<!-- Created with Inkscape (http://www.inkscape.org/) -->

<svg
   xmlns:dc="http://purl.org/dc/elements/1.1/"
   xmlns:cc="http://creativecommons.org/ns#"
   xmlns:rdf="http://www.w3.org/1999/02/22-rdf-syntax-ns#"
   xmlns:svg="http://www.w3.org/2000/svg"
   xmlns="http://www.w3.org/2000/svg"
   xmlns:sodipodi="http://sodipodi.sourceforge.net/DTD/sodipodi-0.dtd"
   xmlns:inkscape="http://www.inkscape.org/namespaces/inkscape"
   width="210mm"
   height="297mm"
   viewBox="0 0 210 297"
   version="1.1"
   id="svg851"
   inkscape:version="0.92.4 (unknown)"
   sodipodi:docname="dira_ink.svg">
  <defs
     id="defs845" />
  <sodipodi:namedview
     id="base"
     pagecolor="#ffffff"
     bordercolor="#666666"
     borderopacity="1.0"
     inkscape:pageopacity="0.0"
     inkscape:pageshadow="2"
     inkscape:zoom="0.7"
     inkscape:cx="235.35713"
     inkscape:cy="886.35506"
     inkscape:document-units="mm"
     inkscape:current-layer="layer1"
     showgrid="false"
     inkscape:window-width="1309"
     inkscape:window-height="645"
     inkscape:window-x="202"
     inkscape:window-y="241"
     inkscape:window-maximized="0" />
  <metadata
     id="metadata848">
    <rdf:RDF>
      <cc:Work
         rdf:about="">
        <dc:format>image/svg+xml</dc:format>
        <dc:type
           rdf:resource="http://purl.org/dc/dcmitype/StillImage" />
        <dc:title></dc:title>
      </cc:Work>
    </rdf:RDF>
  </metadata>
  <g
     inkscape:label="Layer 1"
     inkscape:groupmode="layer"
     id="layer1">
    <g
       aria-label="19 דירה"
       transform="matrix(0.91106519,0,0,1.0976163,-20.355591,-87.977501)"
       style="font-style:italic;font-variant:normal;font-weight:bold;font-stretch:normal;font-size:29.9817791px;line-height:1.25;font-family:'Nimbus Roman No9 L';-inkscape-font-specification:'Nimbus Roman No9 L, Bold Italic';font-variant-ligatures:normal;font-variant-caps:normal;font-variant-numeric:normal;font-feature-settings:normal;text-align:start;letter-spacing:0px;word-spacing:0px;writing-mode:lr-tb;text-anchor:start;fill:#000000;fill-opacity:1;stroke:none;stroke-width:1.60617733"
       id="text1398-9">
      <path
         d="m 26.432975,104.20653 h 10.343713 v -0.68958 c -2.36856,-0.03 -2.908232,-0.26984 -2.908232,-1.37917 0,-0.26983 0.02998,-0.41974 0.359781,-1.61901 l 4.617194,-16.789797 c -2.728342,0.659599 -4.617194,1.049362 -8.09508,1.559052 l -0.05996,0.689581 c 0.809508,-0.119927 1.319199,-0.149909 1.888852,-0.149909 0.929436,0 1.379162,0.3298 1.379162,0.989399 0,0.179891 -0.05996,0.449727 -0.119927,0.719563 L 30.000806,101.2983 c -0.50969,1.64899 -1.409143,2.21865 -3.567831,2.21865 z"
         style="font-style:italic;font-variant:normal;font-weight:bold;font-stretch:normal;font-size:29.9817791px;font-family:'Nimbus Roman No9 L';-inkscape-font-specification:'Nimbus Roman No9 L, Bold Italic';font-variant-ligatures:normal;font-variant-caps:normal;font-variant-numeric:normal;font-feature-settings:normal;text-align:start;writing-mode:lr-tb;text-anchor:start;stroke-width:1.60617733"
         id="path2019"
         inkscape:connector-curvature="0" />
      <path
         d="m 41.094065,104.50635 c 4.04754,-0.74955 5.966374,-1.49909 8.364916,-3.26802 3.747722,-2.758322 6.056319,-7.045717 6.056319,-11.303129 0,-1.978798 -0.629617,-3.747723 -1.738943,-4.88703 -0.869471,-0.869472 -2.068743,-1.319198 -3.53785,-1.319198 -4.137485,0 -7.375517,3.567831 -7.375517,8.125062 0,2.998178 1.828888,5.006957 4.527248,5.006957 0.659599,0 1.109326,-0.08995 1.828889,-0.419745 -1.828889,3.717743 -4.647176,6.206233 -8.304953,7.315553 z m 9.594169,-19.81796 c 0.989399,0 1.469107,0.68958 1.469107,2.068742 0,0.629618 -0.119927,1.738943 -0.299818,2.728342 -0.239854,1.229253 -0.239854,1.229253 -0.989398,3.417923 -0.809508,2.368561 -1.049363,2.668378 -2.308597,2.668378 -1.289217,0 -1.978798,-0.689581 -1.978798,-1.918834 0,-1.918833 0.809508,-5.276793 1.738943,-7.105681 0.629618,-1.229253 1.439126,-1.85887 2.368561,-1.85887 z"
         style="font-style:italic;font-variant:normal;font-weight:bold;font-stretch:normal;font-size:29.9817791px;font-family:'Nimbus Roman No9 L';-inkscape-font-specification:'Nimbus Roman No9 L, Bold Italic';font-variant-ligatures:normal;font-variant-caps:normal;font-variant-numeric:normal;font-feature-settings:normal;text-align:start;writing-mode:lr-tb;text-anchor:start;stroke-width:1.60617733"
         id="path2021"
         inkscape:connector-curvature="0" />
      <path
         d="m 105.77578,87.751684 h 0.46846 q 0,0.995489 1.3322,0.995489 h 6.83666 q 0.7027,0 1.01013,0.380628 0.32207,0.365988 0.32207,0.775896 0,0.439186 -0.0878,0.790535 l -0.32207,1.185803 q -0.11712,0.453825 -0.38063,0.731977 -0.24887,0.278151 -1.12725,0.658779 -1.46395,0.688058 -1.90314,1.507873 -0.43918,0.805174 -0.43918,2.605838 0,2.53264 -0.26352,3.645248 -0.26351,1.1126 -1.09796,2.07881 -0.83445,0.96621 -2.41552,1.4786 l -0.24888,-0.32207 q 0.87838,-1.49324 1.42004,-4.479704 0.45382,-2.781512 1.05405,-4.084431 0.61486,-1.317559 1.97633,-2.356966 h -5.6655 q -1.1126,0 -1.63963,-0.585582 -0.51238,-0.600221 -0.51238,-1.332198 0,-1.61035 1.68355,-3.674525 z"
         style="font-style:italic;font-variant:normal;font-weight:bold;font-stretch:normal;font-size:29.9817791px;font-family:'Nimbus Roman No9 L';-inkscape-font-specification:'Nimbus Roman No9 L, Bold Italic';font-variant-ligatures:normal;font-variant-caps:normal;font-variant-numeric:normal;font-feature-settings:normal;text-align:start;writing-mode:lr-tb;text-anchor:start;stroke-width:1.60617733"
         id="path2023"
         inkscape:connector-curvature="0" />
      <path
         d="m 98.382802,93.651419 -1.068686,-0.702698 q -1.566431,-1.010128 -1.566431,-2.371606 0,-1.493233 1.829943,-2.957187 h 0.439186 q 0,0.775896 0.790535,1.229722 l 1.434671,0.863733 q 1.71283,1.024767 1.71283,2.576559 0,1.917779 -1.259,3.557408 -1.259001,1.639629 -3.572048,2.356966 l -0.278151,-0.731977 q 2.561919,-0.995489 2.561919,-2.430164 0,-0.731977 -1.024768,-1.390756 z"
         style="font-style:italic;font-variant:normal;font-weight:bold;font-stretch:normal;font-size:29.9817791px;font-family:'Nimbus Roman No9 L';-inkscape-font-specification:'Nimbus Roman No9 L, Bold Italic';font-variant-ligatures:normal;font-variant-caps:normal;font-variant-numeric:normal;font-feature-settings:normal;text-align:start;writing-mode:lr-tb;text-anchor:start;stroke-width:1.60617733"
         id="path2025"
         inkscape:connector-curvature="0" />
      <path
         d="m 83.333355,87.751684 h 0.483105 q 0,0.995489 1.332198,0.995489 h 3.938036 q 3.82092,0 3.82092,3.132862 0,1.054046 -0.468465,2.664396 l -2.23985,7.656479 q -0.600221,2.06418 -1.756744,2.38625 l -0.439187,-0.19032 2.195931,-7.758955 q 0.278152,-0.966209 0.278152,-1.756745 0,-0.570942 -0.439187,-1.054047 -0.424546,-0.483104 -1.434675,-0.483104 H 83.81646 q -1.156524,0 -1.668908,-0.600222 -0.497744,-0.61486 -0.497744,-1.317558 0,-1.61035 1.683547,-3.674525 z"
         style="font-style:italic;font-variant:normal;font-weight:bold;font-stretch:normal;font-size:29.9817791px;font-family:'Nimbus Roman No9 L';-inkscape-font-specification:'Nimbus Roman No9 L, Bold Italic';font-variant-ligatures:normal;font-variant-caps:normal;font-variant-numeric:normal;font-feature-settings:normal;text-align:start;writing-mode:lr-tb;text-anchor:start;stroke-width:1.60617733"
         id="path2027"
         inkscape:connector-curvature="0" />
      <path
         d="m 72.763606,104.58716 -0.234233,-0.35135 q 0.907652,-0.96621 1.551791,-5.240959 0.629501,-4.12835 2.591199,-5.650862 h -8.110305 q -0.995489,0 -1.581071,-0.541663 -0.570942,-0.541663 -0.570942,-1.376117 0,-1.654268 1.698187,-3.674525 h 0.453826 q 0,0.995489 1.332198,0.995489 h 8.710526 q 0.688059,0 1.024768,0.395267 0.33671,0.395268 0.33671,0.849094 0,0.263512 -0.05856,0.731977 l -0.175674,0.790535 q -0.117116,0.483105 -0.336709,0.805175 -0.204954,0.30743 -1.097966,0.907651 -1.097966,0.731977 -1.507873,1.478594 -0.395267,0.731977 -0.395267,2.181291 0,0.395268 0.02928,1.112606 l 0.08784,1.639628 q 0,4.230829 -3.747722,4.948169 z m -8.959399,0 -0.204954,-0.38063 q 0.65878,-0.38063 0.907652,-1.3322 l 0.497744,-1.93242 q 0.292791,-1.141884 0.731977,-1.947059 0.453826,-0.805174 1.068687,-1.288279 0.61486,-0.497745 1.390756,-0.65878 0.790535,-0.175674 1.449315,-0.05856 v 0.424547 q -0.863733,0.117116 -1.141885,1.332198 l -0.512384,2.122733 q -0.878372,3.71845 -4.186908,3.71845 z"
         style="font-style:italic;font-variant:normal;font-weight:bold;font-stretch:normal;font-size:29.9817791px;font-family:'Nimbus Roman No9 L';-inkscape-font-specification:'Nimbus Roman No9 L, Bold Italic';font-variant-ligatures:normal;font-variant-caps:normal;font-variant-numeric:normal;font-feature-settings:normal;text-align:start;writing-mode:lr-tb;text-anchor:start;stroke-width:1.60617733"
         id="path2029"
         inkscape:connector-curvature="0" />
    </g>
  </g>
</svg>
